<?xml version="1.0" encoding="utf-8"?>
<!-- Generator: Adobe Illustrator 27.5.0, SVG Export Plug-In . SVG Version: 6.00 Build 0)  -->
<svg version="1.1" id="_x31_" xmlns="http://www.w3.org/2000/svg" xmlns:xlink="http://www.w3.org/1999/xlink" x="0px" y="0px"
	 viewBox="0 0 2122 2122" style="enable-background:new 0 0 2122 2122;" xml:space="preserve">
<path style="fill:#007E96;" d="M1334.437,1252.525c-1.228-7.702-0.849-15.786-1.029-23.553c-1.686-72.7-4.66-145.741-15.19-217.778
	h-100.423h-21.23c-17.893,0-30.671-17.327-25.384-34.421l2.102-6.796l-79.646,117.046c4.742,7.346,9.162,14.868,13.164,22.546
	c1.359,2.609,0.928,5.35-0.975,7.557l-0.727,0.843c-5.298,6.337-10.721,12.576-16.118,18.836l13.555,21.838
	c4.746,7.647,12.95,12.468,21.94,12.893l76.19,3.603c22.638,1.071,34.221,27.635,19.602,44.952l-49.204,58.283
	c-5.806,6.876-7.856,16.169-5.482,24.85l20.117,73.575c5.977,21.86-15.707,41.086-36.694,32.533l-70.635-28.786
	c-8.334-3.396-17.806-2.474-25.328,2.466l-63.757,41.868c-18.943,12.44-43.929-2.242-42.28-24.845l5.549-76.073
	c0.558-7.655-2.149-15.108-7.307-20.632c-23.193,26.893-46.385,53.787-69.578,80.68c-9.301,10.785-18.601,21.57-27.902,32.354
	c-5.416,6.28-10.611,12.703-16.863,18.195c-29.003,25.47-68.947,37.48-107.023,31.332c-31.273-5.05-59.321-22.39-78.642-47.143
	l-35.602,435.699h0.079c0,18.995,164.626,34.392,367.702,34.392c203.077,0,367.623-14.648,369.321-34.392
	c0,0,21.661-290.243-5.418-597.651C1338.334,1257.591,1335.062,1256.446,1334.437,1252.525z"/>
<path style="fill:#007E96;" d="M1211.892,841.354l0.815,1.15l5.893-19.053c-4.818,3.17-10.098,6.381-15.78,9.58
	C1206.161,835.409,1209.236,838.139,1211.892,841.354z"/>
<path style="fill:#F3966F;" d="M796.481,795.627c-0.413,1.48-0.628,2.981-0.628,4.501c0,24.666,55.632,44.662,124.257,44.662
	c68.625,0,124.256-19.996,124.256-44.662V758.18v-40.862c-33.509,12.709-71.986,10.612-103.757-6.105
	c-29.277-15.405-51.403-42.554-61.525-73.925c-2.475-7.67,9.572-10.923,12.027-3.316c9.16,28.389,29.37,52.567,55.793,66.471
	c29.333,15.435,64.553,16.424,95.23,4.46c4.209-1.641,7.067,1.444,7.456,4.976c63.879-20.159,112.302-95.166,118.729-255.975
	c-116.74,23.435-255.947-73.197-255.947-73.197c29.848,74.622-32.662,115.935-50.04,125.711
	c-10.362-17.173-30.144-29.661-50.353-32.643c-5.811-0.858-11.652-0.972-17.313-0.137c-27.334,4.035-40.076,27.63-28.46,52.7
	c11.616,25.07,43.193,42.123,70.527,38.088c1.781-0.263,3.492-0.617,5.147-1.041l-44.221,226.213L796.481,795.627L796.481,795.627z
	 M897.71,547.977c0-13.948,11.307-25.254,25.255-25.254s25.255,11.307,25.255,25.254c0,13.948-11.307,25.255-25.255,25.255
	S897.71,561.925,897.71,547.977z M989.369,658.973c-15.568,1.822-31.563-2.689-43.883-12.375l-0.82-0.658
	c-11.864-9.68-19.702-23.859-21.561-39.067c-1.253-10.27,6.054-19.611,16.324-20.867c10.269-1.253,19.608,6.052,20.866,16.323
	c0.695,5.716,3.805,11.177,8.348,14.817c4.527,3.56,10.647,5.285,16.369,4.615c10.277-1.204,19.58,6.15,20.784,16.427
	C1006.999,648.465,999.643,657.77,989.369,658.973z M959.852,517.116c0-9.076,4.359-16.433,9.738-16.433
	c5.379,0,9.739,7.357,9.739,16.433c0,9.076-4.36,16.433-9.739,16.433C964.211,533.549,959.852,526.192,959.852,517.116z
	 M1118.213,522.723c13.948,0,25.255,11.307,25.255,25.254c0,13.948-11.307,25.255-25.255,25.255
	c-13.948,0-25.255-11.307-25.255-25.255C1092.958,534.029,1104.265,522.723,1118.213,522.723z M1077.752,500.683
	c5.379,0,9.739,7.357,9.739,16.433c0,9.076-4.36,16.433-9.739,16.433c-5.378,0-9.738-7.357-9.738-16.433
	C1068.015,508.04,1072.375,500.683,1077.752,500.683z M1046.021,506.052c-4.968,12.272-9.258,26.07-5.351,39.25
	c1.554,5.242,4.333,10.16,8.486,13.776c4.037,3.515,9.311,4.718,13.801,7.467c9.829,6.019,12.675,18.607,6.678,28.479
	c-6.983,11.498-20.763,14.31-33.224,14.522c-8.042,0.137-8.017-12.336,0-12.473c8.072-0.137,26.489-2.604,23.786-15.05
	c-1.01-4.654-6.202-6.121-10.042-7.848c-4.46-2.005-8.525-4.685-11.867-8.289c-16.329-17.606-12.545-42.768-4.293-63.15
	C1036.973,495.38,1049.032,498.615,1046.021,506.052z M833.517,518.913c-3.813-4.743-8.716-8.3-14.065-11.065
	c-1.273,4.843-1.517,9.722-0.543,14.353c0.652,3.102,1.679,5.948,2.771,8.072c1.573,3.06,3.09,5.181,5.043,7.308
	c2.284,2.489,2.471,6.348,0,8.82c-2.31,2.31-6.541,2.482-8.82,0c-10.633-11.584-14.621-28.112-10.024-43.12
	c-3.859-1.02-7.922-1.506-11.738-0.08c-3.542,1.323-5.693,4.251-5.415,7.927c0.256,3.377-3.058,6.236-6.236,6.236
	c-3.552,0-5.982-2.877-6.236-6.236c-0.551-7.28,3.74-14.197,9.889-17.861c6.181-3.683,13.65-3.984,20.545-2.632
	c6.503,1.275,12.993,4.052,18.768,7.259c5.618,3.121,10.843,7.18,14.88,12.201c2.117,2.634,2.596,6.223,0,8.82
	C840.136,521.113,835.629,521.54,833.517,518.913z"/>
<path style="fill:#DD514C;" d="M1042.134,704.903c-30.677,11.965-65.896,10.975-95.23-4.46
	c-26.423-13.904-46.633-38.082-55.793-66.471c-2.455-7.608-14.501-4.354-12.027,3.316c10.122,31.371,32.247,58.52,61.525,73.925
	c31.771,16.718,70.249,18.815,103.757,6.105l1.083-0.389c3.243-1.265,4.444-4.294,4.14-7.052
	C1049.201,706.346,1046.343,703.261,1042.134,704.903z"/>
<path style="fill:#3A0F10;" d="M969.589,533.549c5.379,0,9.739-7.357,9.739-16.433c0-9.076-4.36-16.433-9.739-16.433
	c-5.378,0-9.738,7.357-9.738,16.433C959.852,526.192,964.211,533.549,969.589,533.549z"/>
<path style="fill:#3A0F10;" d="M1077.752,533.549c5.379,0,9.739-7.357,9.739-16.433c0-9.076-4.36-16.433-9.739-16.433
	c-5.378,0-9.738,7.357-9.738,16.433C1068.015,526.192,1072.375,533.549,1077.752,533.549z"/>
<path style="fill:#F8BBA6;" d="M948.22,547.977c0-13.948-11.307-25.254-25.255-25.254s-25.255,11.307-25.255,25.254
	c0,13.948,11.307,25.255,25.255,25.255S948.22,561.925,948.22,547.977z"/>
<path style="fill:#F8BBA6;" d="M1118.213,573.232c13.948,0,25.255-11.307,25.255-25.255c0-13.948-11.307-25.254-25.255-25.254
	c-13.948,0-25.255,11.307-25.255,25.254C1092.958,561.925,1104.265,573.232,1118.213,573.232z"/>
<path style="fill:#FFFFFF;" d="M985.012,621.762c-5.723,0.671-11.843-1.055-16.369-4.615c-4.544-3.641-7.653-9.101-8.348-14.817
	c-1.258-10.271-10.597-17.576-20.866-16.323c-10.27,1.255-17.576,10.597-16.324,20.867c1.859,15.208,9.697,29.387,21.561,39.067
	l0.82,0.658c12.32,9.687,28.315,14.197,43.883,12.375c10.274-1.203,17.63-10.508,16.427-20.784
	C1004.592,627.912,995.289,620.558,985.012,621.762z"/>
<path style="fill:#DD514C;" d="M1033.994,502.736c-8.252,20.382-12.035,45.544,4.293,63.15c3.343,3.604,7.408,6.284,11.867,8.289
	c3.841,1.727,9.032,3.194,10.042,7.848c2.703,12.447-15.714,14.913-23.786,15.05c-8.017,0.136-8.042,12.609,0,12.473
	c12.461-0.211,26.241-3.024,33.224-14.522c5.996-9.872,3.151-22.46-6.678-28.479c-4.491-2.749-9.764-3.952-13.801-7.467
	c-4.153-3.616-6.932-8.534-8.486-13.776c-3.906-13.181,0.383-26.979,5.351-39.25C1049.032,498.615,1036.973,495.38,1033.994,502.736
	z"/>
<path style="fill:#C25D51;" d="M862.332,506.418c17.378-9.777,79.888-51.089,50.04-125.711c0,0,139.207,96.632,255.947,73.197
	c10.409-2.089,20.658-5.035,30.594-9.189c121.382-50.741,44.154-250.594-115.413-153.552c0,0-311.747-141.281-236.131,14.592
	c0,0-97.556,84.845-35.39,168.02C832.188,476.757,851.97,489.245,862.332,506.418z"/>
<path style="fill:#DD514C;" d="M842.336,510.094c-4.037-5.022-9.262-9.081-14.88-12.201c-5.775-3.207-12.266-5.984-18.768-7.259
	c-6.896-1.352-14.364-1.051-20.545,2.632c-6.148,3.664-10.44,10.581-9.889,17.861c0.255,3.359,2.684,6.236,6.236,6.236
	c3.178,0,6.492-2.859,6.236-6.236c-0.278-3.676,1.873-6.604,5.415-7.927c3.816-1.425,7.878-0.94,11.738,0.08
	c-4.597,15.008-0.609,31.536,10.024,43.12c2.279,2.482,6.51,2.31,8.82,0c2.471-2.471,2.284-6.33,0-8.82
	c-1.953-2.127-3.47-4.248-5.043-7.308c-1.092-2.124-2.118-4.97-2.771-8.072c-0.974-4.631-0.73-9.51,0.543-14.353
	c5.349,2.765,10.252,6.323,14.065,11.065c2.112,2.627,6.62,2.2,8.82,0C844.932,516.317,844.454,512.727,842.336,510.094z"/>
<path style="fill:#007E96;" d="M1407.531,1040.331c1.505,2.678,1.248,6.174-2.306,7.916c-7.264,3.56-14.378,7.416-21.172,11.814
	c-1.445,0.936-2.851,1.925-4.261,2.909c1.796,7.909,3.593,15.818,5.389,23.727c9.26,40.77,18.52,81.54,27.78,122.31
	c5.775,25.425,11.55,50.851,17.325,76.276c1.778,7.828-10.25,11.14-12.027,3.316c-2.12-9.33-4.239-18.661-6.358-27.992
	c-9.26-40.77-18.52-81.54-27.781-122.31c-5.775-25.425-11.55-50.85-17.325-76.276c-0.456-2.009-0.132-4.674,1.604-6.068
	c9.278-7.445,19.889-13.26,30.531-18.476c0.816-0.4,1.617-0.595,2.392-0.658l-7.837-62.541c-3.316-0.688-6.511-1.686-9.627-2.847
	l-6.509,21.045c-3.442,11.13-13.734,18.72-25.384,18.72h-21.191c2.479,17.396,4.553,34.851,6.271,52.338
	c4.084,41.579,6.384,83.321,7.753,125.072c0.463,14.118,0.798,28.239,1.128,42.361c0.102,4.374,0.195,8.749,0.348,13.121
	c0.05,1.426,0.119,2.85,0.185,4.275c0.064,1.389,0.248,2.379,0.004,0.849c0.625,3.92-2.048,6.717-5.042,7.561l118.359,145.471
	c0.806,1.044,1.644,2.052,2.489,3.059l1.753,2.155v-0.165c24.387,27.554,63.14,40.466,100.949,29.867
	c52.703-14.774,83.451-69.475,68.677-122.178l-101.71-295.285c-3.354-0.273-6.654-0.47-9.918-0.618
	C1472.365,1016.835,1433.246,1028.734,1407.531,1040.331z"/>
<path style="fill:#004A54;" d="M1368.399,1055.952c-1.736,1.393-2.06,4.059-1.604,6.068c5.775,25.426,11.55,50.851,17.325,76.276
	c9.261,40.77,18.521,81.54,27.781,122.31c2.119,9.331,4.238,18.661,6.358,27.992c1.777,7.824,13.805,4.513,12.027-3.316
	c-5.775-25.425-11.55-50.851-17.325-76.276c-9.26-40.77-18.521-81.54-27.78-122.31c-1.797-7.909-3.593-15.818-5.389-23.727
	c1.41-0.984,2.816-1.973,4.261-2.909c6.795-4.398,13.908-8.254,21.172-11.814c3.554-1.742,3.811-5.238,2.306-7.916
	c-1.201-2.136-3.524-3.731-6.209-3.512c-0.775,0.063-1.576,0.258-2.392,0.658
	C1388.289,1042.692,1377.677,1048.507,1368.399,1055.952z M1377.115,1064.854"/>
<path style="fill:#004A54;" d="M1346.464,1249.209c0.244,1.53,0.06,0.54-0.004-0.849c-0.066-1.425-0.135-2.849-0.185-4.275
	c-0.154-4.372-0.246-8.747-0.348-13.121c-0.33-14.122-0.665-28.243-1.128-42.361c-1.37-41.751-3.669-83.493-7.753-125.072
	c-1.718-17.487-3.793-34.942-6.271-52.338h-0.038h-12.518c10.53,72.037,13.504,145.078,15.19,217.778
	c0.181,7.767-0.199,15.851,1.029,23.553c0.625,3.921,3.897,5.066,6.883,4.27l0.102-0.025
	C1344.416,1255.926,1347.089,1253.129,1346.464,1249.209z"/>
<path style="fill:#EC6428;" d="M964.049,1281.527c-6.268,7.268-12.535,14.536-18.803,21.804c5.158,5.524,7.866,12.977,7.307,20.632
	l-5.549,76.073c-1.649,22.603,23.336,37.285,42.28,24.845l63.757-41.868c7.523-4.94,16.994-5.862,25.328-2.466l70.635,28.786
	c20.987,8.553,42.671-10.672,36.694-32.533l-20.117-73.575c-2.374-8.68-0.324-17.974,5.482-24.85l49.204-58.283
	c14.619-17.317,3.036-43.881-19.602-44.952l-76.19-3.603c-8.989-0.425-17.194-5.246-21.94-12.893l-13.555-21.838
	c-10.961,12.713-21.999,25.364-32.955,38.069C1025.366,1210.426,994.707,1245.976,964.049,1281.527z"/>
<path style="fill:#F3966F;" d="M1093.637,1087.024l79.646-117.046l39.425-127.475l-0.815-1.15c-2.656-3.214-5.732-5.944-9.072-8.323
	c5.682-3.199,10.961-6.41,15.78-9.58l11.53-37.281c-16.467,1.391-42.184,9.141-69.656,21.785
	c-30.732,14.144-55.347,30.591-65.528,42.727c-0.617,0.493-1.253,0.93-1.864,1.435c-32.606,26.944-48.672,63.957-43.079,92.591
	l-51.095,55.025C1037.743,1019.017,1070.116,1050.589,1093.637,1087.024z"/>
<path style="fill:#007E96;" d="M633.643,1386.019c2.044,5.176,4.436,10.109,7.093,14.825c2.681-1.447,6.323-1.264,8.432,2.019
	c4.712,7.333,10.13,14.073,16.37,20.167c24.892,24.314,60.88,36.19,95.357,30.957c26.059-3.955,52.822-17.393,70.228-37.369
	c16.882-19.375,33.568-38.924,50.35-58.385c30.139-34.949,60.279-69.898,90.419-104.847c28.835-33.437,57.67-66.873,86.505-100.309
	c11.823-13.709,23.645-27.418,35.468-41.127c-8.669-16.043-18.736-31.302-30.602-45.173c-16.232-18.976-35.256-35.591-56.625-48.552
	c-6.208-3.766-12.606-7.242-19.208-10.27c-1.735-0.796-2.471-1.163-3.215-1.483c-6.405,6.293-12.81,12.586-19.215,18.88
	c-31.75,31.195-63.5,62.391-95.25,93.586c-19.889,19.542-39.778,39.083-59.666,58.624c-3.615,3.552-8.741,1.507-10.423-2.752
	c-3.769-9.542-7.537-19.083-11.306-28.624c-16.483-41.734-32.966-83.467-49.45-125.2c-10.348-26.201-20.697-52.402-31.046-78.604
	c-2.954-7.48,9.113-10.695,12.027-3.316c3.769,9.542,7.537,19.083,11.306,28.624c16.483,41.733,32.967,83.466,49.45,125.2
	c9.116,23.081,18.233,46.161,27.349,69.243c5.112-5.023,10.225-10.046,15.337-15.068c31.75-31.195,63.5-62.391,95.25-93.586
	c19.889-19.542,39.778-39.083,59.666-58.625c1.511-1.484,3.99-2.324,6.068-1.603c3.697,1.282,7.296,2.927,10.832,4.592
	c1.271,0.598,2.507,1.263,3.765,1.887l51.095-55.025c-5.593-28.634,10.473-65.647,43.079-92.591
	c0.612-0.506,1.248-0.943,1.864-1.435c10.181-12.136,34.796-28.583,65.528-42.727c27.473-12.644,53.189-20.394,69.656-21.785
	l1.981-6.405c-30.244-17.455-99.078-25.054-187.745-21.583v41.947c0,24.666-55.632,44.662-124.256,44.662
	c-68.625,0-124.257-19.996-124.257-44.662c0-1.519,0.215-3.02,0.628-4.501h-0.001l1.178-6.029
	c-114.867,24.008-206.89,57.187-247.678,88.311c-54.796,27.239-80.546,92.359-57.654,150.321L633.643,1386.019z"/>
<path style="fill:#004A54;" d="M723.88,1465.891c38.076,6.148,78.021-5.862,107.023-31.332c6.253-5.492,11.448-11.915,16.863-18.195
	c9.301-10.784,18.601-21.569,27.902-32.354c23.193-26.893,46.385-53.786,69.578-80.68c6.268-7.268,12.535-14.536,18.803-21.804
	c30.659-35.551,61.317-71.101,91.976-106.652c10.956-12.705,21.994-25.356,32.955-38.069c5.397-6.26,10.82-12.499,16.118-18.836
	l0.727-0.843c1.904-2.208,2.335-4.948,0.975-7.557c-4.002-7.678-8.422-15.2-13.164-22.546
	c-23.521-36.435-55.894-68.007-94.729-87.292c-1.257-0.624-2.494-1.289-3.765-1.887c-3.536-1.665-7.135-3.31-10.832-4.592
	c-2.078-0.721-4.557,0.119-6.068,1.603c-19.889,19.542-39.778,39.083-59.666,58.625c-31.75,31.195-63.5,62.391-95.25,93.586
	c-5.112,5.022-10.225,10.045-15.337,15.068c-9.116-23.081-18.232-46.162-27.349-69.243c-16.483-41.734-32.967-83.467-49.45-125.2
	c-3.769-9.541-7.537-19.083-11.306-28.624c-2.914-7.379-14.981-4.164-12.027,3.316c10.349,26.201,20.698,52.403,31.046,78.604
	c16.484,41.733,32.967,83.467,49.45,125.2c3.769,9.541,7.538,19.082,11.306,28.624c1.682,4.259,6.808,6.304,10.423,2.752
	c19.889-19.541,39.778-39.083,59.666-58.624c31.75-31.195,63.5-62.391,95.25-93.586c6.406-6.294,12.81-12.587,19.215-18.88
	c0.743,0.32,1.48,0.687,3.215,1.483c6.602,3.028,13,6.504,19.208,10.27c21.369,12.961,40.392,29.576,56.625,48.552
	c11.865,13.872,21.933,29.13,30.602,45.173c-11.823,13.709-23.645,27.418-35.468,41.127c-28.835,33.436-57.67,66.872-86.505,100.309
	c-30.14,34.949-60.28,69.898-90.419,104.847c-16.783,19.461-33.468,39.01-50.35,58.385c-17.406,19.976-44.169,33.414-70.228,37.369
	c-34.477,5.234-70.465-6.643-95.357-30.957c-6.239-6.095-11.657-12.834-16.37-20.167c-2.11-3.282-5.752-3.465-8.432-2.019
	c-2.816,1.52-4.569,4.84-2.337,8.314c2.128,3.312,4.427,6.499,6.839,9.589C664.559,1443.5,692.607,1460.841,723.88,1465.891z"/>
<path style="fill:#EC6428;" d="M1218.601,823.45l-5.893,19.053l-39.425,127.475l-2.102,6.796
	c-5.287,17.094,7.491,34.421,25.384,34.421h21.23c-17.893,0-30.671-17.327-25.384-34.421l85.469-276.347
	c3.442-11.13,13.734-18.719,25.384-18.719h-21.23c-11.65,0-21.942,7.589-25.384,18.719l-24.537,79.337l-1.981,6.405L1218.601,823.45
	z"/>
<path style="fill:#FCC105;" d="M1277.879,700.426l-85.469,276.347c-5.287,17.094,7.492,34.421,25.384,34.421h100.423h12.518h0.038
	h21.191c11.65,0,21.942-7.59,25.384-18.72l6.509-21.045c-5.911-2.203-11.412-5.208-16.393-8.904
	c-6.966-4.079-15.05-10.369-24.367-19.687c-30.576-30.576-62.692-81.838-55.363-89.167c4.262-4.262,16.459,0.372,31.915,10.971
	c-9.151-10.948-16.307-21.117-20.831-29.472c-2.788,9.891-10.368,16.467-17.322,14.762c-7.174-1.759-10.919-11.632-8.365-22.052
	c2.554-10.42,10.441-17.441,17.615-15.682c1.754,0.43,3.295,1.358,4.597,2.647c5.16-3.924,19.804,2.799,37.997,16.424
	c-12.107-13.388-21.768-26.111-27.891-36.465c-3.378,3.477-7.526,5.248-11.488,4.277c-7.174-1.759-10.919-11.631-8.365-22.05
	c2.554-10.421,10.441-17.442,17.615-15.683c4.42,1.084,7.522,5.258,8.668,10.731c13.649,5.305,35.663,21.508,58.209,43.603
	c-18.506-22.405-28.208-41.664-22.61-47.261c7.329-7.329,38.057,11.517,68.633,42.093c4.701,4.701,9.083,9.394,13.177,14.017
	l33.527-108.406c5.287-17.094-7.491-34.421-25.384-34.421h-21.23h-112.941C1291.613,681.707,1281.321,689.296,1277.879,700.426z
	 M1298.065,726.183c2.554-10.42,10.442-17.441,17.616-15.682c7.174,1.759,10.919,11.632,8.365,22.052
	c-2.554,10.419-10.441,17.441-17.615,15.682C1299.256,746.476,1295.511,736.602,1298.065,726.183z"/>
<path style="fill:#EC6428;" d="M1306.43,748.235c7.174,1.758,15.061-5.263,17.615-15.682c2.554-10.42-1.19-20.293-8.365-22.052
	c-7.174-1.759-15.061,5.263-17.616,15.682C1295.511,736.602,1299.256,746.476,1306.43,748.235z"/>
<path style="fill:#EC6428;" d="M1299.544,771.615c2.136-2.136,6.489-1.807,12.338,0.467c-1.146-5.473-4.248-9.647-8.668-10.731
	c-7.174-1.759-15.061,5.262-17.615,15.683c-2.554,10.419,1.191,20.292,8.365,22.05c3.961,0.971,8.11-0.8,11.488-4.277
	C1298.727,783.437,1296.24,774.919,1299.544,771.615z"/>
<path style="fill:#EC6428;" d="M1294.842,815.168l0.504-0.32c-1.302-1.289-2.843-2.217-4.597-2.647
	c-7.174-1.759-15.061,5.263-17.615,15.682c-2.554,10.419,1.19,20.292,8.365,22.052c6.954,1.705,14.533-4.871,17.322-14.762
	C1293.555,825.452,1291.827,818.183,1294.842,815.168z"/>
<path style="fill:#F3966F;" d="M1464.023,875.628l-0.258-1.519c-1.826-2.956-3.848-5.768-6.099-8.392
	c-4.172-10.471-14.345-25.342-28.375-41.183c-4.094-4.622-8.476-9.316-13.177-14.017c-30.576-30.576-61.304-49.422-68.633-42.093
	c-5.598,5.597,4.104,24.856,22.61,47.261c-22.547-22.094-44.561-38.297-58.209-43.603c-5.849-2.273-10.202-2.603-12.338-0.467
	c-3.304,3.304-0.817,11.823,5.907,23.193c6.124,10.354,15.784,23.077,27.891,36.465c-18.193-13.625-32.838-20.348-37.997-16.424
	l-0.504,0.32c-3.014,3.015-1.287,10.284,3.978,20.004c4.524,8.356,11.68,18.524,20.831,29.472
	c-15.456-10.6-27.653-15.233-31.915-10.971c-7.329,7.328,24.787,58.59,55.363,89.167c9.317,9.318,17.401,15.608,24.367,19.687
	c4.981,3.696,10.482,6.701,16.393,8.904c3.116,1.161,6.311,2.159,9.627,2.847l7.837,62.541c2.685-0.219,5.008,1.376,6.209,3.512
	c25.714-11.597,64.834-23.495,114.489-21.254L1464.023,875.628z"/>
</svg>
